<svg xmlns="http://www.w3.org/2000/svg" width="145" height="30" fill="none" viewBox="0 0 145 30"><path fill="#F43757" d="M4.376 24.288C10.104 24.288 12.888 21.28 12.888 15.616V1.12H5.624V15.584C5.624 17.824 4.44 18.56 2.744 18.56C1.496 18.56 0.76 18.368 0.024 18.144V23.488C0.984 23.968 2.136 24.288 4.376 24.288ZM24.3918 19.776C22.3758 19.776 21.4158 18.368 21.4158 15.648V15.392C21.4158 12.768 22.4718 11.456 24.3918 11.456C26.3438 11.456 27.2718 12.864 27.2718 15.488V15.712C27.2718 18.368 26.3118 19.776 24.3918 19.776ZM24.3598 24.416C29.5758 24.416 33.6718 21.184 33.6718 15.68V15.424C33.6718 10.048 29.6078 6.816 24.3918 6.816C19.1118 6.816 15.0478 10.144 15.0478 15.584V15.84C15.0478 21.344 19.1438 24.416 24.3598 24.416ZM35.879 24H42.183V14.752C42.183 12.768 43.111 11.84 44.679 11.84C46.183 11.84 46.791 12.704 46.791 14.4V24H53.095V12.992C53.095 8.832 50.887 6.816 47.719 6.816C44.903 6.816 43.111 8.192 42.183 9.952V-1.90735e-06H35.879V24ZM56.004 24H62.308V14.752C62.308 12.768 63.236 11.84 64.804 11.84C66.308 11.84 66.916 12.704 66.916 14.4V24H73.22V12.992C73.22 8.832 71.012 6.816 67.844 6.816C65.028 6.816 63.236 8.192 62.308 9.952V7.264H56.004V24ZM76.129 24H82.433V14.752C82.433 12.768 83.361 11.84 84.929 11.84C86.433 11.84 87.041 12.704 87.041 14.4V24H93.345V12.992C93.345 8.832 91.137 6.816 87.969 6.816C85.153 6.816 83.361 8.192 82.433 9.952V7.264H76.129V24ZM98.253 29.568H104.237L113.165 7.264H107.213L104.269 15.616L101.101 7.264H94.285L100.973 22.336L98.253 29.568ZM115.393 24H126.145C132.033 24 134.625 21.696 134.625 17.632V17.504C134.625 14.304 132.737 12.64 130.049 12.16C132.609 11.552 134.017 9.888 134.017 7.232V7.104C134.017 3.712 131.841 1.12 126.209 1.12H115.393V24ZM122.465 19.232V14.368H124.609C126.657 14.368 127.489 15.2 127.489 16.704V16.832C127.489 18.368 126.625 19.232 124.769 19.232H122.465ZM122.465 10.048V5.856H124.641C126.433 5.856 127.169 6.528 127.169 7.904V8.032C127.169 9.44 126.465 10.048 124.673 10.048H122.465ZM140.519 24.384C142.567 24.384 144.103 22.88 144.103 20.928C144.103 19.04 142.567 17.504 140.519 17.504C138.503 17.504 136.999 19.04 136.999 20.928C136.999 22.88 138.503 24.384 140.519 24.384Z"/></svg>