<svg width="24" height="20" viewBox="0 0 24 20" fill="none" xmlns="http://www.w3.org/2000/svg">
<path d="M23.6183 2.32238C23.085 2.55884 22.5315 2.74538 21.9635 2.88043C22.5893 2.28569 23.0599 1.5418 23.3254 0.711477C23.4012 0.474435 23.1437 0.269459 22.9297 0.396377C22.1395 0.865078 21.2883 1.21669 20.3998 1.44156C20.3482 1.45461 20.2951 1.46122 20.2417 1.46122C20.0798 1.46122 19.9225 1.40113 19.7987 1.29206C18.8534 0.45887 17.6375 0 16.3752 0C15.8289 0 15.2774 0.0851386 14.736 0.253075C13.0582 0.773444 11.7637 2.15737 11.3576 3.86482C11.2052 4.50526 11.1639 5.14629 11.2349 5.77005C11.243 5.84173 11.2091 5.89176 11.1882 5.91523C11.1515 5.95636 11.0995 5.97994 11.0455 5.97994C11.0395 5.97994 11.0333 5.97965 11.0271 5.97907C7.35465 5.63787 4.04297 3.86857 1.7021 0.997145C1.58274 0.850683 1.35383 0.868647 1.25868 1.03184C0.800281 1.81828 0.558031 2.71776 0.558031 3.63305C0.558031 5.03575 1.12158 6.35766 2.10047 7.32133C1.68882 7.22373 1.2904 7.07001 0.920294 6.86445C0.74124 6.76497 0.520933 6.89283 0.518417 7.09763C0.492788 9.18145 1.71281 11.0357 3.54045 11.8706C3.50365 11.8715 3.46684 11.8719 3.42998 11.8719C3.14027 11.8719 2.84694 11.8439 2.55823 11.7887C2.35659 11.7502 2.18719 11.9415 2.2498 12.137C2.84302 13.9891 4.43765 15.3542 6.34592 15.6641C4.76217 16.7273 2.91786 17.2881 0.998294 17.2881L0.399867 17.2877C0.215488 17.2877 0.0595472 17.4079 0.0125601 17.5865C-0.0337248 17.7624 0.0515307 17.948 0.208759 18.0394C2.3718 19.2982 4.83906 19.9636 7.34488 19.9636C9.53829 19.9636 11.59 19.5283 13.4432 18.6699C15.142 17.8829 16.6433 16.758 17.9052 15.3263C19.0808 13.9926 20 12.453 20.6374 10.7504C21.2449 9.12738 21.566 7.39558 21.566 5.7422V5.66344C21.566 5.39796 21.6861 5.14816 21.8955 4.97812C22.6905 4.3327 23.3827 3.57295 23.9529 2.71999C24.1035 2.49476 23.866 2.21249 23.6183 2.32238Z" fill="#333333"/>
</svg>
